<?xml version="1.0" encoding="UTF-8"?>
<svg id="Layer_2" data-name="Layer 2" xmlns="http://www.w3.org/2000/svg" viewBox="0 0 960.94 333.22">
  <defs>
    <style>
      .cls-1 {
        fill: #f8b218;
      }

      .cls-1, .cls-2, .cls-3, .cls-4 {
        stroke-width: 0px;
      }

      .cls-2 {
        fill: #4abbea;
      }

      .cls-3 {
        fill: #ed3463;
      }

      .cls-4 {
        fill: #191919;
      }
    </style>
  </defs>
  <g id="Layer_1-2" data-name="Layer 1">
    <path class="cls-4" d="m345.06,72.63c-13.6,2.65-27.77,1.59-40.91-3.17-2.65-13.6-1.59-27.77,3.17-40.91h0c13.6-2.65,27.76-1.59,40.9,3.17,2.65,13.6,1.59,27.77-3.17,40.91Z"/>
    <path class="cls-1" d="m307.8,219.47v-120.84s0,0,0,0c20.18,0,36.55,16.36,36.55,36.55v120.84s0,0,0,0c-20.18,0-36.55-16.36-36.55-36.55Z"/>
    <path class="cls-1" d="m441.9,258.09c-13.36,0-26.04-1.72-38.02-5.16-11.99-3.44-21.62-7.61-28.88-12.53l.81-1.6c6.86-13.57,22.47-20.28,37.01-15.85.55.17,1.11.33,1.68.5,9.82,2.85,19.75,4.27,29.77,4.27,11.39,0,19.7-1.52,24.9-4.57,5.2-3.04,7.81-7.22,7.81-12.53,0-4.32-1.77-7.61-5.31-9.87-3.54-2.26-8.16-3.98-13.85-5.16-5.7-1.18-12.04-2.26-19.01-3.24-6.98-.98-13.95-2.31-20.93-3.98-6.98-1.67-13.31-4.13-19.01-7.37-5.7-3.24-10.32-7.61-13.85-13.12-3.54-5.5-5.31-12.87-5.31-22.1,0-9.82,2.85-18.42,8.55-25.79,5.7-7.37,13.71-13.12,24.02-17.24,10.32-4.13,22.55-6.19,36.7-6.19,10.41,0,21.07,1.23,31.98,3.68,10.91,2.46,19.99,5.85,27.26,10.17l-1.52,2.95c-6.6,12.8-21.03,19.23-35.09,16.11-.08-.02-.15-.03-.23-.05-7.66-1.67-15.23-2.51-22.7-2.51-11.01,0-19.26,1.62-24.76,4.86-5.5,3.24-8.25,7.42-8.25,12.53,0,4.72,1.77,8.25,5.3,10.61,3.54,2.36,8.15,4.18,13.85,5.45,5.7,1.28,12.03,2.46,19.01,3.54,6.97,1.08,13.9,2.46,20.78,4.13,6.88,1.67,13.21,4.03,19.01,7.07,5.79,3.05,10.46,7.32,14,12.82,3.54,5.5,5.3,12.67,5.3,21.52,0,10.02-2.9,18.62-8.69,25.79-5.8,7.17-13.95,12.78-24.46,16.8-10.51,4.02-23.14,6.04-37.87,6.04Z"/>
    <path class="cls-1" d="m660.3,135.47v42.74c0,10.42-1.77,19.16-5.3,26.23-3.54,7.07-8.55,12.38-15.03,15.92-6.48,3.54-14.05,5.31-22.7,5.31-11.6,0-20.63-3.49-27.12-10.46-6.48-6.97-9.73-17.44-9.73-31.39v-48.04c0-20.51-16.63-37.14-37.14-37.14v89.89c0,15.72,2.9,28.74,8.69,39.05,5.79,10.32,13.8,17.98,24.02,22.99,10.21,5.01,22,7.52,35.37,7.52,12.18,0,23.38-2.75,33.6-8.25,1.02-.55,2.01-1.12,2.98-1.71,6.18-3.79,14.12.65,14.12,7.9h0c19.37,0,35.07-15.7,35.07-35.07v-122.32c-20.35,0-36.84,16.49-36.84,36.84Z"/>
    <path class="cls-1" d="m858.66,113.07c-12.38-11-30.06-16.5-53.05-16.5-12.58,0-24.66,1.67-36.25,5.01-11.6,3.34-21.71,8.25-30.36,14.74l.9,1.67c6.76,12.55,21.56,18.19,35.1,13.73.08-.03.17-.06.25-.08,8.45-2.75,16.99-4.13,25.64-4.13,13.36,0,23.33,3,29.92,8.99,6.58,6,9.87,14.4,9.87,25.2v2.36s-40.97,0-40.97,0c-15.92,0-28.69,2.06-38.32,6.19-9.63,4.13-16.56,9.73-20.78,16.8-4.23,7.07-6.34,15.03-6.34,23.87,0,9.04,2.4,17.15,7.22,24.32,4.81,7.17,11.64,12.78,20.48,16.8,8.84,4.02,19.16,6.04,30.95,6.04,14.15,0,25.74-2.55,34.78-7.66.71-.4,1.4-.81,2.07-1.24,5.5-3.48,12.66.33,12.66,6.84h0s0,0,0,0c19.21,0,34.78-15.57,34.78-34.78v-57.47c0-22.79-6.19-39.69-18.57-50.69Zm-33.75,112c-7.17,4.13-15.28,6.19-24.32,6.19-9.43,0-16.8-1.96-22.11-5.89-5.31-3.93-7.96-9.14-7.96-15.62,0-6.09,2.21-11.15,6.63-15.18,4.42-4.03,12.82-6.04,25.2-6.04h18.57c8.12,0,15.3-3.97,19.75-10.07v28.34c-3.34,8.06-8.6,14.15-15.77,18.27Z"/>
    <path class="cls-1" d="m924.39,219.47V37.33s0,0,0,0c20.18,0,36.55,16.36,36.55,36.55v182.15s0,0,0,0c-20.18,0-36.55-16.36-36.55-36.55Z"/>
    <g>
      <path class="cls-2" d="m160.98,253.91c-9.83,2.38-20.1,3.63-30.66,3.63-17.69,0-34.55-3.52-49.93-9.91,14.76-3.53,29.01-9.69,42.02-18.46,11.6,10.76,24.69,19,38.56,24.74Z"/>
      <path class="cls-2" d="m239.74,198.02c-13.65,21.09-33.24,37.96-56.4,48.28-17.85-4.34-34.86-12.94-49.4-25.87,2.73-2.3,5.39-4.75,7.97-7.33,2.41-2.41,4.72-4.9,6.91-7.45,8.63-10.09,15.48-21.17,20.53-32.85,2.36-5.43,4.32-10.99,5.9-16.63,4.62-16.49,5.92-33.71,3.92-50.62,9.69,5.23,18.8,11.93,26.97,20.13,1.61,1.61,3.17,3.26,4.66,4.95.91,1,1.79,2.02,2.64,3.05,3.09,3.71,5.9,7.55,8.44,11.53,10.37,16.16,16.33,34.34,17.87,52.8Z"/>
      <path class="cls-1" d="m260.65,127.22c0,17.69-3.52,34.55-9.91,49.93-3.53-14.76-9.69-29.01-18.46-42.02,10.76-11.6,19-24.69,24.74-38.56,2.38,9.83,3.63,20.1,3.63,30.66Z"/>
      <path class="cls-3" d="m28.38,119.31c-10.76,11.6-19,24.7-24.74,38.56C1.26,148.05,0,137.78,0,127.22c0-17.69,3.52-34.55,9.91-49.93,3.53,14.76,9.69,29.01,18.46,42.02Z"/>
      <path class="cls-3" d="m151.99,176.07c-5.23,9.69-11.93,18.8-20.13,26.97-1.61,1.61-3.26,3.17-4.95,4.66-1,.91-2.02,1.79-3.05,2.64-3.71,3.09-7.55,5.9-11.53,8.44-16.16,10.37-34.34,16.33-52.8,17.87-21.09-13.65-37.96-33.24-48.28-56.4,4.34-17.85,12.94-34.86,25.87-49.4,2.3,2.73,4.75,5.39,7.33,7.97,2.41,2.41,4.9,4.72,7.45,6.91,10.09,8.63,21.17,15.48,32.85,20.53,5.43,2.36,10.99,4.32,16.63,5.9,16.49,4.62,33.71,5.92,50.62,3.92Z"/>
    </g>
    <g>
      <path class="cls-4" d="m511.5,333.22c-3.07,0-5.91-.52-8.53-1.56-2.62-1.04-4.89-2.51-6.82-4.4-1.93-1.89-3.42-4.1-4.49-6.64-1.06-2.54-1.59-5.32-1.59-8.35,0-3.03.53-5.81,1.59-8.35,1.06-2.54,2.57-4.75,4.51-6.64,1.95-1.89,4.22-3.35,6.82-4.4,2.6-1.04,5.43-1.57,8.5-1.57,2.91,0,5.64.47,8.17,1.42,2.54.94,4.71,2.38,6.52,4.31h0c-.99,1.02-2.59,1.21-3.73.37-1.26-.94-2.6-1.66-4.03-2.17-2.15-.77-4.42-1.15-6.82-1.15-2.64,0-5.09.45-7.35,1.36-2.26.9-4.23,2.18-5.9,3.84s-2.97,3.58-3.89,5.78c-.92,2.2-1.39,4.6-1.39,7.2,0,2.6.46,5,1.39,7.2.92,2.2,2.22,4.13,3.89,5.78,1.67,1.65,3.64,2.93,5.9,3.84,2.26.9,4.71,1.36,7.35,1.36,2.4,0,4.67-.38,6.82-1.15,1.43-.51,2.78-1.25,4.04-2.2,1.1-.83,2.63-.78,3.59.21l.13.13c-1.81,1.93-3.98,3.37-6.52,4.34-2.54.96-5.26,1.45-8.17,1.45Z"/>
      <path class="cls-4" d="m545.96,333.16c-2.95,0-5.58-.67-7.88-2.01-2.3-1.34-4.13-3.19-5.49-5.55-1.36-2.36-2.04-5.06-2.04-8.09,0-3.07.68-5.77,2.04-8.12,1.36-2.34,3.19-4.18,5.49-5.52,2.3-1.34,4.93-2.01,7.88-2.01,2.95,0,5.59.67,7.91,2.01,2.32,1.34,4.15,3.18,5.49,5.52,1.34,2.34,2.01,5.05,2.01,8.12,0,3.03-.67,5.73-2.01,8.09-1.34,2.36-3.17,4.21-5.49,5.55-2.32,1.34-4.96,2.01-7.91,2.01Zm0-2.66c2.36,0,4.49-.54,6.37-1.62,1.89-1.08,3.36-2.61,4.43-4.57,1.06-1.97,1.59-4.23,1.59-6.79,0-2.6-.53-4.87-1.59-6.82-1.06-1.95-2.54-3.46-4.43-4.55-1.89-1.08-4.01-1.62-6.37-1.62-2.36,0-4.48.54-6.35,1.62-1.87,1.08-3.34,2.6-4.43,4.55-1.08,1.95-1.62,4.22-1.62,6.82,0,2.56.54,4.82,1.62,6.79,1.08,1.97,2.56,3.49,4.43,4.57,1.87,1.08,3.98,1.62,6.35,1.62Z"/>
      <path class="cls-4" d="m608.88,301.88c2.48,0,4.63.48,6.46,1.45,1.83.96,3.26,2.42,4.28,4.37,1.02,1.95,1.53,4.36,1.53,7.23v18s0,0,0,0c-1.63,0-2.95-1.32-2.95-2.95v-14.81c0-3.46-.85-6.1-2.54-7.91-1.69-1.81-4.05-2.71-7.08-2.71-2.32,0-4.33.49-6.02,1.48-1.69.98-2.99,2.36-3.89,4.13-.91,1.77-1.36,3.9-1.36,6.37v16.41s0,0,0,0c-1.63,0-2.95-1.32-2.95-2.95v-14.81c0-3.46-.85-6.1-2.54-7.91-1.69-1.81-4.05-2.71-7.08-2.71-2.32,0-4.33.49-6.02,1.48-1.69.98-2.99,2.36-3.9,4.13-.9,1.77-1.36,3.9-1.36,6.37v13.46c0,1.63-1.32,2.95-2.95,2.95h0s0-27.98,0-27.98c0-1.56,1.27-2.83,2.83-2.83h0v8.5s-.41-.95-.41-.95c.9-2.4,2.42-4.3,4.54-5.69,2.13-1.4,4.68-2.09,7.67-2.09,3.07,0,5.66.78,7.76,2.33,2.1,1.55,3.43,3.87,3.98,6.94l-1-.41c.83-2.64,2.38-4.77,4.66-6.4,2.28-1.63,5.06-2.45,8.32-2.45Z"/>
      <path class="cls-4" d="m671.68,301.88c2.48,0,4.63.48,6.46,1.45s3.26,2.42,4.28,4.37c1.02,1.95,1.53,4.36,1.53,7.23v18s0,0,0,0c-1.63,0-2.95-1.32-2.95-2.95v-14.81c0-3.46-.85-6.1-2.54-7.91-1.69-1.81-4.05-2.71-7.08-2.71-2.32,0-4.33.49-6.02,1.48-1.69.98-2.99,2.36-3.89,4.13-.91,1.77-1.36,3.9-1.36,6.37v16.41s0,0,0,0c-1.63,0-2.95-1.32-2.95-2.95v-14.81c0-3.46-.85-6.1-2.54-7.91-1.69-1.81-4.05-2.71-7.08-2.71-2.32,0-4.33.49-6.02,1.48-1.69.98-2.99,2.36-3.9,4.13-.9,1.77-1.36,3.9-1.36,6.37v13.46c0,1.63-1.32,2.95-2.95,2.95h0v-27.98c0-1.56,1.27-2.83,2.83-2.83h0v8.5s-.41-.95-.41-.95c.9-2.4,2.42-4.3,4.54-5.69,2.13-1.4,4.68-2.09,7.67-2.09,3.07,0,5.66.78,7.76,2.33,2.1,1.55,3.43,3.87,3.98,6.94l-1-.41c.83-2.64,2.38-4.77,4.66-6.4,2.28-1.63,5.06-2.45,8.32-2.45Z"/>
      <path class="cls-4" d="m708.62,333.16c-2.64,0-4.92-.48-6.85-1.45-1.93-.96-3.41-2.42-4.46-4.37-1.04-1.95-1.56-4.36-1.56-7.23v-18s0,0,0,0c1.63,0,2.95,1.32,2.95,2.95v14.81c0,3.46.89,6.1,2.66,7.91,1.77,1.81,4.27,2.72,7.5,2.72,2.32,0,4.33-.49,6.02-1.48,1.69-.98,2.99-2.37,3.89-4.16.9-1.79,1.36-3.9,1.36-6.35v-13.46c0-1.63,1.32-2.95,2.95-2.95h0v27.97c0,1.57-1.27,2.83-2.83,2.83h0v-8.56s.41,1,.41,1c-.9,2.4-2.41,4.3-4.51,5.7-2.11,1.4-4.61,2.09-7.53,2.09Z"/>
      <path class="cls-4" d="m750.65,301.88c2.52,0,4.71.48,6.58,1.45,1.87.96,3.32,2.42,4.37,4.37,1.04,1.95,1.56,4.36,1.56,7.23v18s0,0,0,0c-1.63,0-2.95-1.32-2.95-2.95v-14.81c0-3.46-.88-6.1-2.63-7.91-1.75-1.81-4.2-2.71-7.35-2.71-2.4,0-4.48.49-6.26,1.48-1.77.98-3.12,2.36-4.04,4.13-.92,1.77-1.39,3.9-1.39,6.37v13.46c0,1.63-1.32,2.95-2.95,2.95h0s0-27.98,0-27.98c0-1.56,1.27-2.83,2.83-2.83h0v8.56s-.41-.95-.41-.95c.94-2.44,2.5-4.36,4.66-5.75,2.16-1.4,4.82-2.09,7.97-2.09Z"/>
      <path class="cls-4" d="m778.74,294.5c-1.4.27-2.86.16-4.22-.33-.27-1.4-.16-2.86.33-4.22h0c1.4-.27,2.86-.16,4.22.33.27,1.4.16,2.86-.33,4.22Zm-.47,38.42h0v-27.86c0-1.63-1.32-2.95-2.95-2.95h0v27.86c0,1.63,1.32,2.95,2.95,2.95Z"/>
      <path class="cls-4" d="m802.94,333.16c-2.99,0-5.66-.67-8-2.01s-4.19-3.19-5.55-5.55c-1.36-2.36-2.04-5.06-2.04-8.09,0-3.07.68-5.78,2.04-8.15,1.36-2.36,3.21-4.2,5.55-5.52s5.01-1.98,8-1.98c2.48,0,4.73.47,6.76,1.42,2.03.94,3.67,2.36,4.93,4.25h0c-1.15.84-2.72.73-3.78-.23-.76-.69-1.6-1.24-2.54-1.66-1.65-.75-3.44-1.12-5.37-1.12-2.4,0-4.56.54-6.46,1.62-1.91,1.08-3.4,2.6-4.48,4.55-1.08,1.95-1.62,4.22-1.62,6.82,0,2.6.54,4.87,1.62,6.82,1.08,1.95,2.58,3.46,4.49,4.55,1.91,1.08,4.06,1.62,6.46,1.62,1.93,0,3.72-.37,5.37-1.12.93-.42,1.78-.98,2.54-1.66,1.06-.96,2.63-1.07,3.78-.23h0c-1.26,1.89-2.9,3.31-4.93,4.25-2.03.94-4.28,1.42-6.76,1.42Z"/>
      <path class="cls-4" d="m831.8,333.16c-2.28,0-4.26-.36-5.93-1.09-1.67-.73-2.95-1.76-3.84-3.1-.89-1.34-1.33-2.87-1.33-4.6,0-1.57.36-3,1.09-4.28.73-1.28,1.94-2.32,3.63-3.13,1.69-.81,3.95-1.21,6.79-1.21h11.33s0,0,0,0c0,1.27-1.03,2.3-2.3,2.3h-8.97c-3.19,0-5.42.59-6.7,1.77-1.28,1.18-1.92,2.66-1.92,4.43,0,1.97.75,3.54,2.24,4.72,1.5,1.18,3.6,1.77,6.32,1.77,2.6,0,4.79-.59,6.58-1.77,1.79-1.18,3.12-2.89,3.98-5.14l.52,1.27c.2.47.21,1.02,0,1.49-.85,1.9-2.16,3.43-3.92,4.6-1.99,1.32-4.51,1.98-7.58,1.98Zm11.1-.24v-7.02s-.12-1.06-.12-1.06v-11.57c0-2.87-.78-5.06-2.33-6.55-1.56-1.49-3.83-2.24-6.82-2.24-2.12,0-4.1.36-5.93,1.09-1.01.4-1.95.87-2.8,1.4-1.13.7-2.61.37-3.37-.72h0c1.54-1.38,3.38-2.45,5.55-3.22,2.16-.77,4.43-1.15,6.79-1.15,3.82,0,6.75.96,8.79,2.89,2.05,1.93,3.07,4.8,3.07,8.62v16.7c0,1.56-1.27,2.83-2.83,2.83h0Z"/>
      <path class="cls-4" d="m852.81,304.65h0c0-1.4,1.14-2.54,2.54-2.54h15.88s0,0,0,0c0,1.4-1.14,2.54-2.54,2.54h-15.88Zm14.05,28.51c-2.72,0-4.79-.75-6.23-2.24-1.44-1.49-2.15-3.54-2.15-6.14v-29.39s0,0,0,0c1.63,0,2.95,1.32,2.95,2.95v26.15c0,1.97.49,3.48,1.48,4.55.98,1.06,2.4,1.59,4.25,1.59,1.1,0,2.09-.19,2.98-.56,1.12-.47,2.41-.14,3.03.9v.02c-.78.75-1.73,1.3-2.85,1.65-1.12.35-2.27.53-3.45.53Z"/>
      <path class="cls-4" d="m884.8,294.5c-1.4.27-2.86.16-4.22-.33-.27-1.4-.16-2.86.33-4.22h0c1.4-.27,2.86-.16,4.22.33.27,1.4.16,2.86-.33,4.22Zm-.47,38.42h0v-27.86c0-1.63-1.32-2.95-2.95-2.95h0v27.86c0,1.63,1.32,2.95,2.95,2.95Z"/>
      <path class="cls-4" d="m908.82,333.16c-2.95,0-5.58-.67-7.88-2.01-2.3-1.34-4.13-3.19-5.49-5.55-1.36-2.36-2.04-5.06-2.04-8.09,0-3.07.68-5.77,2.04-8.12,1.36-2.34,3.19-4.18,5.49-5.52s4.93-2.01,7.88-2.01c2.95,0,5.59.67,7.91,2.01,2.32,1.34,4.15,3.18,5.49,5.52,1.34,2.34,2.01,5.05,2.01,8.12,0,3.03-.67,5.73-2.01,8.09-1.34,2.36-3.17,4.21-5.49,5.55-2.32,1.34-4.96,2.01-7.91,2.01Zm0-2.66c2.36,0,4.49-.54,6.37-1.62,1.89-1.08,3.36-2.61,4.43-4.57,1.06-1.97,1.59-4.23,1.59-6.79,0-2.6-.53-4.87-1.59-6.82-1.06-1.95-2.54-3.46-4.43-4.55-1.89-1.08-4.01-1.62-6.37-1.62-2.36,0-4.48.54-6.35,1.62-1.87,1.08-3.34,2.6-4.43,4.55-1.08,1.95-1.62,4.22-1.62,6.82,0,2.56.54,4.82,1.62,6.79,1.08,1.97,2.56,3.49,4.43,4.57,1.87,1.08,3.98,1.62,6.35,1.62Z"/>
      <path class="cls-4" d="m948.42,301.88c2.52,0,4.71.48,6.58,1.45,1.87.96,3.32,2.42,4.37,4.37,1.04,1.95,1.56,4.36,1.56,7.23v18s0,0,0,0c-1.63,0-2.95-1.32-2.95-2.95v-14.81c0-3.46-.88-6.1-2.63-7.91-1.75-1.81-4.2-2.71-7.35-2.71-2.4,0-4.48.49-6.26,1.48-1.77.98-3.12,2.36-4.04,4.13-.92,1.77-1.39,3.9-1.39,6.37v13.46c0,1.63-1.32,2.95-2.95,2.95h0s0-27.98,0-27.98c0-1.56,1.27-2.83,2.83-2.83h0v8.56s-.41-.95-.41-.95c.94-2.44,2.5-4.36,4.66-5.75,2.16-1.4,4.82-2.09,7.97-2.09Z"/>
    </g>
    <path class="cls-4" d="m21.75,43.41c-3.12,0-6-.51-8.66-1.53-2.66-1.02-4.96-2.46-6.92-4.31-1.96-1.85-3.48-4.02-4.55-6.5C.54,28.58,0,25.86,0,22.89c0-2.97.54-5.69,1.62-8.18,1.08-2.49,2.61-4.65,4.58-6.5,1.98-1.85,4.29-3.28,6.92-4.31,2.64-1.02,5.51-1.53,8.63-1.53,2.96,0,5.72.46,8.3,1.39,2.58.92,4.78,2.33,6.62,4.22l-.14.14c-.98.98-2.51,1.04-3.63.23-1.28-.92-2.65-1.63-4.1-2.13-2.18-.75-4.49-1.13-6.92-1.13-2.68,0-5.16.44-7.46,1.33-2.3.89-4.3,2.14-5.99,3.76-1.7,1.62-3.02,3.51-3.95,5.67-.94,2.16-1.41,4.51-1.41,7.05,0,2.54.47,4.89,1.41,7.05.94,2.16,2.26,4.05,3.95,5.67,1.7,1.62,3.69,2.87,5.99,3.76,2.3.89,4.78,1.33,7.46,1.33,2.44,0,4.74-.38,6.92-1.13,1.45-.5,2.82-1.22,4.1-2.16,1.13-.82,2.66-.77,3.65.21l.12.12c-1.84,1.89-4.04,3.31-6.62,4.25-2.58.94-5.34,1.42-8.3,1.42Z"/>
    <path class="cls-4" d="m56.75,43.35c-3,0-5.66-.66-8-1.97s-4.19-3.12-5.57-5.43c-1.38-2.31-2.07-4.95-2.07-7.92,0-3.01.69-5.65,2.07-7.95,1.38-2.29,3.24-4.09,5.57-5.4,2.34-1.31,5-1.97,8-1.97,3,0,5.67.66,8.03,1.97,2.36,1.31,4.21,3.11,5.57,5.4,1.36,2.29,2.04,4.94,2.04,7.95,0,2.97-.68,5.61-2.04,7.92-1.36,2.31-3.22,4.12-5.57,5.43-2.36,1.31-5.03,1.97-8.03,1.97Zm0-2.6c2.4,0,4.56-.53,6.47-1.59,1.92-1.06,3.42-2.55,4.49-4.48,1.08-1.93,1.62-4.14,1.62-6.65,0-2.54-.54-4.77-1.62-6.68-1.08-1.91-2.58-3.39-4.49-4.45-1.92-1.06-4.08-1.59-6.47-1.59-2.4,0-4.55.53-6.44,1.59-1.9,1.06-3.4,2.54-4.49,4.45-1.1,1.91-1.65,4.13-1.65,6.68,0,2.51.55,4.72,1.65,6.65,1.1,1.93,2.6,3.42,4.49,4.48,1.9,1.06,4.05,1.59,6.44,1.59Z"/>
    <path class="cls-4" d="m81.68,40.12V.23s0,0,0,0c1.65,0,3,1.34,3,3v39.89s0,0,0,0c-1.65,0-3-1.34-3-3Z"/>
    <path class="cls-4" d="m109.55,43.35c-3,0-5.66-.66-8-1.97-2.34-1.31-4.19-3.12-5.57-5.43-1.38-2.31-2.07-4.95-2.07-7.92,0-3.01.69-5.65,2.07-7.95,1.38-2.29,3.24-4.09,5.57-5.4,2.34-1.31,5-1.97,8-1.97s5.67.66,8.03,1.97c2.36,1.31,4.21,3.11,5.57,5.4,1.36,2.29,2.04,4.94,2.04,7.95,0,2.97-.68,5.61-2.04,7.92-1.36,2.31-3.22,4.12-5.57,5.43-2.36,1.31-5.03,1.97-8.03,1.97Zm0-2.6c2.4,0,4.56-.53,6.47-1.59,1.92-1.06,3.42-2.55,4.49-4.48,1.08-1.93,1.62-4.14,1.62-6.65,0-2.54-.54-4.77-1.62-6.68-1.08-1.91-2.58-3.39-4.49-4.45-1.92-1.06-4.08-1.59-6.47-1.59-2.4,0-4.55.53-6.44,1.59-1.9,1.06-3.4,2.54-4.49,4.45-1.1,1.91-1.65,4.13-1.65,6.68,0,2.51.55,4.72,1.65,6.65,1.1,1.93,2.6,3.42,4.49,4.48,1.9,1.06,4.05,1.59,6.44,1.59Z"/>
    <path class="cls-4" d="m147.18,43.35c-2.68,0-4.99-.47-6.95-1.42s-3.47-2.37-4.52-4.28c-1.06-1.91-1.59-4.27-1.59-7.08V12.95s0,0,0,0c1.65,0,3,1.34,3,3v14.4c0,3.39.9,5.97,2.7,7.74,1.8,1.77,4.34,2.66,7.61,2.66,2.36,0,4.39-.48,6.11-1.44,1.72-.96,3.04-2.32,3.95-4.08.92-1.75,1.38-3.82,1.38-6.21v-13.07c0-1.66,1.34-3,3-3h0v27.3c0,1.59-1.29,2.88-2.88,2.88h0v-8.38s.42.98.42.98c-.92,2.35-2.45,4.21-4.58,5.58-2.14,1.37-4.68,2.05-7.64,2.05Z"/>
    <path class="cls-4" d="m174.56,40.12V12.95s0,0,0,0c1.59,0,2.88,1.29,2.88,2.88v5.39s-.3-.92-.3-.92c.88-2.43,2.36-4.3,4.43-5.61,1.37-.86,2.96-1.44,4.78-1.74,1.58-.26,3.01,1,3.01,2.6h0c-.12,0-.24,0-.36-.03s-.24-.03-.36-.03c-3.48,0-6.19,1.05-8.15,3.15-1.96,2.1-2.94,5.02-2.94,8.76v15.72s0,0,0,0c-1.65,0-3-1.34-3-3Z"/>
    <path class="cls-4" d="m193.02,15.43h0c0-1.37,1.11-2.49,2.49-2.49h16.21s0,0,0,0c0,1.37-1.11,2.49-2.49,2.49h-16.21Zm8.75,27.69c-1.65,0-3-1.34-3-3V8.32c0-2.5.75-4.52,2.25-6.04C202.52.76,204.67,0,207.46,0c1.16,0,2.3.16,3.42.49,1.12.33,2.04.82,2.76,1.47h0c-.57,1.05-1.83,1.52-2.93,1.08-.14-.06-.28-.11-.42-.15-.84-.27-1.74-.4-2.7-.4-1.92,0-3.38.51-4.38,1.53s-1.5,2.53-1.5,4.54v5.09s.06,1.39.06,1.39v28.09s0,0,0,0Z"/>
    <path class="cls-4" d="m230.53,43.35c-2.68,0-4.99-.47-6.95-1.42-1.96-.94-3.47-2.37-4.52-4.28-1.06-1.91-1.59-4.27-1.59-7.08V12.95s0,0,0,0c1.65,0,3,1.34,3,3v14.4c0,3.39.9,5.97,2.7,7.74,1.8,1.77,4.34,2.66,7.61,2.66,2.36,0,4.39-.48,6.11-1.44,1.72-.96,3.04-2.32,3.95-4.08.92-1.75,1.38-3.82,1.38-6.21v-13.07c0-1.66,1.34-3,3-3h0v27.3c0,1.59-1.29,2.88-2.88,2.88h0v-8.38s.42.98.42.98c-.92,2.35-2.45,4.21-4.58,5.58-2.14,1.37-4.68,2.05-7.64,2.05Z"/>
    <path class="cls-4" d="m257.92,40.12V.23s0,0,0,0c1.65,0,3,1.34,3,3v39.89s0,0,0,0c-1.65,0-3-1.34-3-3Z"/>
  </g>
</svg>
